<svg width="1600" height="900" viewBox="0 0 1600 900" fill="none" xmlns="http://www.w3.org/2000/svg">
  <defs>
    <linearGradient id="bg" x1="0" y1="0" x2="1600" y2="900" gradientUnits="userSpaceOnUse">
      <stop offset="0" stop-color="#0B1020"/>
      <stop offset="0.5" stop-color="#334155"/>
      <stop offset="1" stop-color="#C2410C"/>
    </linearGradient>
    <filter id="blur" x="-20%" y="-20%" width="140%" height="140%">
      <feGaussianBlur stdDeviation="30"/>
    </filter>
  </defs>

  <rect width="1600" height="900" fill="url(#bg)"/>
  <circle cx="1240" cy="160" r="250" fill="#FDBA74" opacity="0.10" filter="url(#blur)"/>
  <circle cx="300" cy="260" r="200" fill="#93C5FD" opacity="0.08" filter="url(#blur)"/>
  <circle cx="980" cy="700" r="260" fill="#FB7185" opacity="0.08" filter="url(#blur)"/>

  <path d="M0 728C200 694 360 692 540 714C710 734 840 770 1010 750C1190 728 1300 660 1460 650C1525 646 1565 650 1600 656V900H0V728Z" fill="#020617" opacity="0.68"/>
  <path d="M170 640C330 570 470 560 620 592C770 624 900 616 1030 574C1170 530 1310 522 1500 568" stroke="#FED7AA" stroke-opacity="0.16" stroke-width="4" stroke-linecap="round"/>
  <path d="M160 690C330 650 520 646 700 670C880 694 1010 690 1160 662C1320 632 1440 628 1520 644" stroke="#FDBA74" stroke-opacity="0.12" stroke-width="3" stroke-linecap="round"/>

  <g fill="#FFFFFF" opacity="0.08">
    <rect x="130" y="300" width="250" height="300" rx="28"/>
    <rect x="430" y="230" width="320" height="390" rx="28"/>
    <rect x="800" y="280" width="270" height="320" rx="28"/>
    <rect x="1120" y="210" width="300" height="410" rx="28"/>
  </g>

  <g fill="#FFEDD5" opacity="0.14">
    <rect x="180" y="360" width="16" height="16" rx="4"/>
    <rect x="220" y="360" width="16" height="16" rx="4"/>
    <rect x="260" y="360" width="16" height="16" rx="4"/>
    <rect x="500" y="290" width="16" height="16" rx="4"/>
    <rect x="540" y="290" width="16" height="16" rx="4"/>
    <rect x="580" y="290" width="16" height="16" rx="4"/>
    <rect x="860" y="330" width="16" height="16" rx="4"/>
    <rect x="900" y="330" width="16" height="16" rx="4"/>
    <rect x="940" y="330" width="16" height="16" rx="4"/>
    <rect x="1200" y="260" width="16" height="16" rx="4"/>
    <rect x="1240" y="260" width="16" height="16" rx="4"/>
    <rect x="1280" y="260" width="16" height="16" rx="4"/>
  </g>

  <g stroke="#FFFFFF" stroke-opacity="0.20" stroke-width="10" stroke-linecap="round" stroke-linejoin="round">
    <path d="M520 520C590 470 650 452 720 460C780 468 832 500 900 492C970 484 1040 446 1100 410"/>
    <path d="M560 560C630 520 700 512 770 524C840 538 910 528 980 492C1050 456 1120 432 1180 430"/>
  </g>
</svg>
