<svg width="1600" height="900" viewBox="0 0 1600 900" fill="none" xmlns="http://www.w3.org/2000/svg">
  <defs>
    <linearGradient id="sky" x1="0" y1="0" x2="1600" y2="900" gradientUnits="userSpaceOnUse">
      <stop offset="0" stop-color="#111827"/>
      <stop offset="0.45" stop-color="#172554"/>
      <stop offset="1" stop-color="#6D28D9"/>
    </linearGradient>
    <linearGradient id="glow" x1="300" y1="120" x2="1150" y2="760" gradientUnits="userSpaceOnUse">
      <stop offset="0" stop-color="#7DD3FC" stop-opacity="0.7"/>
      <stop offset="0.5" stop-color="#C084FC" stop-opacity="0.35"/>
      <stop offset="1" stop-color="#F9A8D4" stop-opacity="0.15"/>
    </linearGradient>
    <linearGradient id="building" x1="0" y1="0" x2="0" y2="1">
      <stop offset="0" stop-color="#1F2937"/>
      <stop offset="1" stop-color="#0F172A"/>
    </linearGradient>
  </defs>

  <rect width="1600" height="900" fill="url(#sky)"/>
  <circle cx="1230" cy="160" r="260" fill="url(#glow)" opacity="0.8"/>
  <circle cx="300" cy="300" r="220" fill="#60A5FA" opacity="0.12"/>
  <circle cx="1450" cy="260" r="180" fill="#A855F7" opacity="0.12"/>

  <path d="M0 700C180 660 250 640 410 640C570 640 650 690 790 690C940 690 1040 625 1200 625C1360 625 1450 660 1600 640V900H0V700Z" fill="#020617" opacity="0.72"/>

  <g opacity="0.96">
    <rect x="110" y="390" width="110" height="370" rx="2" fill="url(#building)"/>
    <rect x="235" y="320" width="80" height="440" rx="2" fill="#111827"/>
    <rect x="325" y="440" width="130" height="320" rx="2" fill="#0B1120"/>
    <rect x="470" y="280" width="170" height="480" rx="2" fill="#111827"/>
    <rect x="660" y="350" width="120" height="410" rx="2" fill="#0F172A"/>
    <rect x="800" y="250" width="160" height="510" rx="2" fill="#111827"/>
    <rect x="980" y="390" width="100" height="370" rx="2" fill="#101827"/>
    <rect x="1100" y="300" width="180" height="460" rx="2" fill="#0B1120"/>
    <rect x="1295" y="210" width="90" height="550" rx="2" fill="#111827"/>
    <rect x="1400" y="340" width="130" height="420" rx="2" fill="#0F172A"/>
  </g>

  <g fill="#C4B5FD" opacity="0.45">
    <rect x="138" y="430" width="10" height="18" rx="1"/>
    <rect x="138" y="462" width="10" height="18" rx="1"/>
    <rect x="138" y="494" width="10" height="18" rx="1"/>
    <rect x="168" y="430" width="10" height="18" rx="1"/>
    <rect x="168" y="462" width="10" height="18" rx="1"/>
    <rect x="168" y="494" width="10" height="18" rx="1"/>
    <rect x="250" y="360" width="12" height="20" rx="1"/>
    <rect x="250" y="394" width="12" height="20" rx="1"/>
    <rect x="250" y="428" width="12" height="20" rx="1"/>
    <rect x="380" y="476" width="12" height="20" rx="1"/>
    <rect x="380" y="510" width="12" height="20" rx="1"/>
    <rect x="510" y="332" width="12" height="20" rx="1"/>
    <rect x="510" y="366" width="12" height="20" rx="1"/>
    <rect x="510" y="400" width="12" height="20" rx="1"/>
    <rect x="850" y="296" width="12" height="20" rx="1"/>
    <rect x="850" y="330" width="12" height="20" rx="1"/>
    <rect x="850" y="364" width="12" height="20" rx="1"/>
    <rect x="1140" y="344" width="12" height="20" rx="1"/>
    <rect x="1140" y="378" width="12" height="20" rx="1"/>
    <rect x="1140" y="412" width="12" height="20" rx="1"/>
    <rect x="1328" y="258" width="10" height="18" rx="1"/>
    <rect x="1328" y="290" width="10" height="18" rx="1"/>
    <rect x="1328" y="322" width="10" height="18" rx="1"/>
  </g>

  <path d="M1010 90L1085 60L1048 132L1118 102L1043 198" stroke="#C084FC" stroke-width="12" stroke-linecap="round" stroke-linejoin="round" opacity="0.9"/>
  <path d="M1080 95L1184 110L1122 168L1210 188" stroke="#93C5FD" stroke-width="10" stroke-linecap="round" stroke-linejoin="round" opacity="0.5"/>

  <rect x="0" y="0" width="1600" height="900" fill="url(#sky)" opacity="0.18"/>
</svg>
