<svg width="1600" height="900" viewBox="0 0 1600 900" fill="none" xmlns="http://www.w3.org/2000/svg">
  <defs>
    <linearGradient id="bg" x1="0" y1="0" x2="1600" y2="900" gradientUnits="userSpaceOnUse">
      <stop offset="0" stop-color="#0B1220"/>
      <stop offset="0.55" stop-color="#112B57"/>
      <stop offset="1" stop-color="#0F766E"/>
    </linearGradient>
    <filter id="blur" x="-20%" y="-20%" width="140%" height="140%">
      <feGaussianBlur stdDeviation="28"/>
    </filter>
  </defs>

  <rect width="1600" height="900" fill="url(#bg)"/>
  <circle cx="1220" cy="170" r="250" fill="#67E8F9" opacity="0.12" filter="url(#blur)"/>
  <circle cx="300" cy="260" r="200" fill="#A78BFA" opacity="0.10" filter="url(#blur)"/>
  <circle cx="1080" cy="690" r="260" fill="#22D3EE" opacity="0.08" filter="url(#blur)"/>

  <path d="M0 730C200 690 360 690 520 715C690 742 820 760 960 736C1100 712 1210 650 1380 650C1490 650 1545 664 1600 672V900H0V730Z" fill="#020617" opacity="0.68"/>
  <path d="M150 660C270 600 420 588 560 622C700 656 790 642 920 600C1050 558 1180 548 1350 590" stroke="#CFFAFE" stroke-opacity="0.16" stroke-width="4" stroke-linecap="round"/>
  <path d="M120 704C260 666 420 664 560 694C720 728 840 716 980 684C1120 652 1280 650 1480 690" stroke="#67E8F9" stroke-opacity="0.11" stroke-width="3" stroke-linecap="round"/>

  <g fill="#FFFFFF" opacity="0.08">
    <rect x="180" y="330" width="90" height="250" rx="18"/>
    <rect x="300" y="280" width="120" height="320" rx="18"/>
    <rect x="450" y="360" width="72" height="220" rx="18"/>
    <rect x="980" y="300" width="120" height="260" rx="18"/>
    <rect x="1120" y="250" width="140" height="330" rx="18"/>
    <rect x="1290" y="340" width="84" height="230" rx="18"/>
  </g>

  <g fill="#E0F2FE" opacity="0.14">
    <rect x="215" y="372" width="12" height="18" rx="2"/>
    <rect x="215" y="408" width="12" height="18" rx="2"/>
    <rect x="215" y="444" width="12" height="18" rx="2"/>
    <rect x="335" y="324" width="12" height="18" rx="2"/>
    <rect x="335" y="360" width="12" height="18" rx="2"/>
    <rect x="335" y="396" width="12" height="18" rx="2"/>
    <rect x="1010" y="344" width="12" height="18" rx="2"/>
    <rect x="1010" y="380" width="12" height="18" rx="2"/>
    <rect x="1138" y="296" width="12" height="18" rx="2"/>
    <rect x="1138" y="332" width="12" height="18" rx="2"/>
  </g>
</svg>
