<svg width="1200" height="900" viewBox="0 0 1200 900" fill="none" xmlns="http://www.w3.org/2000/svg">
  <defs>
    <linearGradient id="bg" x1="0" y1="0" x2="1200" y2="900" gradientUnits="userSpaceOnUse">
      <stop offset="0" stop-color="#E9EEF9"/>
      <stop offset="0.5" stop-color="#CFE4FF"/>
      <stop offset="1" stop-color="#B7D9F2"/>
    </linearGradient>
    <linearGradient id="panel" x1="0" y1="0" x2="1" y2="1">
      <stop offset="0" stop-color="#0F172A"/>
      <stop offset="1" stop-color="#1D4ED8"/>
    </linearGradient>
  </defs>

  <rect width="1200" height="900" rx="48" fill="url(#bg)"/>
  <circle cx="910" cy="170" r="210" fill="#FFFFFF" opacity="0.55"/>
  <circle cx="230" cy="760" r="160" fill="#38BDF8" opacity="0.18"/>
  <circle cx="980" cy="690" r="200" fill="#7C3AED" opacity="0.12"/>

  <rect x="92" y="130" width="320" height="640" rx="34" fill="url(#panel)" opacity="0.96"/>
  <rect x="122" y="170" width="260" height="28" rx="14" fill="#FFFFFF" opacity="0.30"/>
  <rect x="122" y="222" width="200" height="20" rx="10" fill="#FFFFFF" opacity="0.16"/>
  <rect x="122" y="260" width="240" height="20" rx="10" fill="#FFFFFF" opacity="0.16"/>
  <rect x="122" y="298" width="170" height="20" rx="10" fill="#FFFFFF" opacity="0.16"/>

  <g opacity="0.95">
    <rect x="122" y="360" width="112" height="112" rx="24" fill="#FFFFFF" opacity="0.94"/>
    <rect x="250" y="360" width="112" height="112" rx="24" fill="#FFFFFF" opacity="0.84"/>
    <rect x="122" y="492" width="112" height="112" rx="24" fill="#FFFFFF" opacity="0.84"/>
    <rect x="250" y="492" width="112" height="112" rx="24" fill="#FFFFFF" opacity="0.94"/>
    <rect x="186" y="624" width="112" height="112" rx="24" fill="#FFFFFF" opacity="0.90"/>
  </g>

  <path d="M150 416H206M206 416L188 398M206 416L188 434" stroke="#1D4ED8" stroke-width="8" stroke-linecap="round" stroke-linejoin="round"/>
  <path d="M278 398H324M278 416H324M278 434H306" stroke="#0F172A" stroke-width="8" stroke-linecap="round"/>
  <path d="M150 548H210M210 548L190 530M210 548L190 566" stroke="#0F172A" stroke-width="8" stroke-linecap="round" stroke-linejoin="round"/>
  <path d="M280 530H324M280 548H318M280 566H304" stroke="#1D4ED8" stroke-width="8" stroke-linecap="round"/>
  <path d="M194 658H266M230 626V700" stroke="#0F172A" stroke-width="8" stroke-linecap="round"/>

  <g transform="translate(462 160)">
    <rect x="0" y="0" width="640" height="560" rx="38" fill="#FFFFFF" opacity="0.86"/>
    <rect x="34" y="34" width="572" height="92" rx="28" fill="#0F172A" opacity="0.96"/>
    <text x="58" y="88" fill="#FFFFFF" font-family="Arial, sans-serif" font-size="42" font-weight="700">Business Process Outsourcing</text>
    <rect x="34" y="158" width="320" height="22" rx="11" fill="#0F172A" opacity="0.15"/>
    <rect x="34" y="196" width="560" height="22" rx="11" fill="#0F172A" opacity="0.10"/>
    <rect x="34" y="234" width="520" height="22" rx="11" fill="#0F172A" opacity="0.10"/>
    <rect x="34" y="272" width="480" height="22" rx="11" fill="#0F172A" opacity="0.10"/>

    <g>
      <rect x="34" y="344" width="162" height="142" rx="26" fill="#EFF6FF"/>
      <rect x="222" y="344" width="162" height="142" rx="26" fill="#F5F3FF"/>
      <rect x="410" y="344" width="162" height="142" rx="26" fill="#FFF7ED"/>
      <circle cx="80" cy="388" r="20" fill="#1D4ED8"/>
      <circle cx="268" cy="388" r="20" fill="#7C3AED"/>
      <circle cx="456" cy="388" r="20" fill="#EA580C"/>
      <rect x="112" y="372" width="56" height="12" rx="6" fill="#0F172A" opacity="0.75"/>
      <rect x="300" y="372" width="56" height="12" rx="6" fill="#0F172A" opacity="0.75"/>
      <rect x="488" y="372" width="56" height="12" rx="6" fill="#0F172A" opacity="0.75"/>
      <rect x="58" y="426" width="106" height="12" rx="6" fill="#0F172A" opacity="0.12"/>
      <rect x="246" y="426" width="106" height="12" rx="6" fill="#0F172A" opacity="0.12"/>
      <rect x="434" y="426" width="106" height="12" rx="6" fill="#0F172A" opacity="0.12"/>
    </g>

    <rect x="34" y="514" width="572" height="12" rx="6" fill="#0F172A" opacity="0.08"/>
    <rect x="34" y="540" width="420" height="12" rx="6" fill="#0F172A" opacity="0.08"/>
  </g>
</svg>
