<svg width="1400" height="1050" viewBox="0 0 1400 1050" fill="none" xmlns="http://www.w3.org/2000/svg">
  <defs>
    <linearGradient id="bg" x1="0" y1="0" x2="1400" y2="1050" gradientUnits="userSpaceOnUse">
      <stop offset="0" stop-color="#EDE9FE"/>
      <stop offset="0.48" stop-color="#C7D2FE"/>
      <stop offset="1" stop-color="#BAE6FD"/>
    </linearGradient>
    <linearGradient id="panel" x1="0" y1="0" x2="1" y2="1">
      <stop offset="0" stop-color="#0F172A"/>
      <stop offset="1" stop-color="#312E81"/>
    </linearGradient>
  </defs>

  <rect width="1400" height="1050" rx="44" fill="url(#bg)"/>
  <circle cx="1120" cy="180" r="220" fill="#FFFFFF" opacity="0.48"/>
  <circle cx="260" cy="790" r="180" fill="#8B5CF6" opacity="0.12"/>
  <circle cx="1070" cy="790" r="220" fill="#0EA5E9" opacity="0.10"/>

  <rect x="90" y="120" width="1220" height="810" rx="34" fill="#FFFFFF" opacity="0.35"/>
  <rect x="120" y="150" width="1160" height="750" rx="28" fill="#F8FAFC" opacity="0.78"/>

  <g>
    <rect x="160" y="220" width="340" height="250" rx="28" fill="url(#panel)"/>
    <rect x="530" y="220" width="610" height="250" rx="28" fill="#0F172A" opacity="0.92"/>
    <rect x="160" y="500" width="980" height="300" rx="28" fill="#FFFFFF" stroke="#CBD5E1" stroke-width="2"/>
  </g>

  <g fill="#FFFFFF" opacity="0.9">
    <rect x="194" y="258" width="84" height="14" rx="7"/>
    <rect x="194" y="286" width="132" height="12" rx="6" opacity="0.72"/>
    <rect x="194" y="332" width="246" height="122" rx="20" fill="#FFFFFF" opacity="0.10"/>
  </g>

  <g stroke="#A78BFA" stroke-width="14" stroke-linecap="round" stroke-linejoin="round">
    <path d="M596 384L676 336L752 358L832 286L920 318L1012 240L1132 278"/>
    <path d="M596 384L676 398L752 374L832 332L920 368L1012 332L1132 300"/>
  </g>

  <g>
    <rect x="192" y="542" width="240" height="200" rx="24" fill="#EFF6FF"/>
    <rect x="462" y="542" width="240" height="200" rx="24" fill="#F5F3FF"/>
    <rect x="732" y="542" width="240" height="200" rx="24" fill="#FFF7ED"/>
  </g>

  <g fill="#0F172A" opacity="0.85">
    <rect x="232" y="606" width="24" height="96" rx="12"/>
    <rect x="272" y="578" width="24" height="124" rx="12"/>
    <rect x="312" y="624" width="24" height="78" rx="12"/>

    <rect x="502" y="588" width="24" height="114" rx="12"/>
    <rect x="542" y="616" width="24" height="86" rx="12"/>
    <rect x="582" y="562" width="24" height="140" rx="12"/>

    <rect x="772" y="598" width="24" height="104" rx="12"/>
    <rect x="812" y="560" width="24" height="142" rx="12"/>
    <rect x="852" y="628" width="24" height="74" rx="12"/>
  </g>

  <g fill="#475569" opacity="0.9">
    <rect x="232" y="730" width="160" height="10" rx="5"/>
    <rect x="502" y="730" width="160" height="10" rx="5"/>
    <rect x="772" y="730" width="160" height="10" rx="5"/>
  </g>
</svg>
