<svg width="1400" height="1050" viewBox="0 0 1400 1050" fill="none" xmlns="http://www.w3.org/2000/svg">
  <defs>
    <linearGradient id="sky" x1="0" y1="0" x2="1400" y2="1050" gradientUnits="userSpaceOnUse">
      <stop offset="0" stop-color="#DCE7F5"/>
      <stop offset="1" stop-color="#B9D3EE"/>
    </linearGradient>
    <linearGradient id="desk" x1="0" y1="0" x2="0" y2="1">
      <stop offset="0" stop-color="#4B5563"/>
      <stop offset="1" stop-color="#1F2937"/>
    </linearGradient>
    <linearGradient id="glass" x1="0" y1="0" x2="1" y2="1">
      <stop offset="0" stop-color="#F8FAFC" stop-opacity="0.75"/>
      <stop offset="1" stop-color="#CBD5E1" stop-opacity="0.35"/>
    </linearGradient>
  </defs>

  <rect width="1400" height="1050" rx="44" fill="url(#sky)"/>
  <circle cx="1040" cy="220" r="240" fill="#FFFFFF" opacity="0.55"/>
  <circle cx="280" cy="790" r="210" fill="#60A5FA" opacity="0.14"/>
  <circle cx="1110" cy="820" r="260" fill="#7C3AED" opacity="0.10"/>

  <rect x="0" y="730" width="1400" height="320" fill="#0F172A" opacity="0.12"/>
  <rect x="0" y="770" width="1400" height="280" fill="url(#desk)" opacity="0.96"/>

  <rect x="128" y="250" width="1040" height="430" rx="34" fill="#FFFFFF" opacity="0.35"/>
  <rect x="152" y="276" width="992" height="378" rx="28" fill="#F8FAFC" opacity="0.72"/>

  <g opacity="0.92">
    <rect x="214" y="330" width="120" height="170" rx="18" fill="#E2E8F0"/>
    <rect x="360" y="300" width="120" height="220" rx="18" fill="#CBD5E1"/>
    <rect x="510" y="340" width="120" height="160" rx="18" fill="#E2E8F0"/>
    <rect x="660" y="280" width="120" height="260" rx="18" fill="#94A3B8"/>
    <rect x="810" y="320" width="120" height="190" rx="18" fill="#CBD5E1"/>
    <rect x="960" y="290" width="120" height="240" rx="18" fill="#E2E8F0"/>
  </g>

  <g opacity="0.88">
    <circle cx="390" cy="440" r="110" fill="#1E293B"/>
    <circle cx="390" cy="395" r="48" fill="#E2E8F0"/>
    <rect x="310" y="474" width="160" height="158" rx="70" fill="#334155"/>

    <circle cx="760" cy="420" r="105" fill="#0F172A"/>
    <circle cx="760" cy="378" r="46" fill="#F8FAFC"/>
    <rect x="686" y="450" width="148" height="150" rx="64" fill="#1D4ED8"/>
  </g>

  <g opacity="0.9">
    <rect x="470" y="500" width="440" height="126" rx="18" fill="url(#glass)" stroke="#FFFFFF" stroke-opacity="0.4"/>
    <circle cx="556" cy="562" r="34" fill="#1D4ED8"/>
    <rect x="610" y="538" width="210" height="14" rx="7" fill="#0F172A" opacity="0.55"/>
    <rect x="610" y="566" width="290" height="14" rx="7" fill="#0F172A" opacity="0.22"/>
    <rect x="610" y="594" width="160" height="14" rx="7" fill="#0F172A" opacity="0.22"/>
  </g>

  <g fill="#FFFFFF" opacity="0.42">
    <circle cx="226" cy="218" r="18"/>
    <circle cx="282" cy="218" r="18"/>
    <circle cx="338" cy="218" r="18"/>
  </g>
</svg>
